<mxfile host="app.diagrams.net" agent="Mozilla/5.0 (Macintosh; Intel Mac OS X 10_15_7) AppleWebKit/537.36 (KHTML, like Gecko) Chrome/109.0.0.0 Safari/537.36" version="24.7.7">
  <diagram name="第 1 页" id="mAt44EbTby8AhIL5TiHA">
    <mxGraphModel dx="1432" dy="535" grid="1" gridSize="10" guides="1" tooltips="1" connect="1" arrows="1" fold="1" page="1" pageScale="1" pageWidth="827" pageHeight="1169" math="0" shadow="0">
      <root>
        <mxCell id="0" />
        <mxCell id="1" parent="0" />
        <mxCell id="XW34NHOJ4P6kjXkz7-ER-1" value="编辑资料页（new）" style="rounded=0;whiteSpace=wrap;html=1;" vertex="1" parent="1">
          <mxGeometry x="120" y="150" width="120" height="60" as="geometry" />
        </mxCell>
        <mxCell id="XW34NHOJ4P6kjXkz7-ER-2" value="编辑资料页（old）" style="rounded=0;whiteSpace=wrap;html=1;" vertex="1" parent="1">
          <mxGeometry x="120" y="240" width="120" height="60" as="geometry" />
        </mxCell>
        <mxCell id="XW34NHOJ4P6kjXkz7-ER-3" value="账号找回页" style="rounded=0;whiteSpace=wrap;html=1;" vertex="1" parent="1">
          <mxGeometry x="120" y="330" width="120" height="60" as="geometry" />
        </mxCell>
        <mxCell id="XW34NHOJ4P6kjXkz7-ER-4" value="" style="shape=flexArrow;endArrow=classic;html=1;rounded=0;" edge="1" parent="1">
          <mxGeometry width="50" height="50" relative="1" as="geometry">
            <mxPoint x="260" y="269.5" as="sourcePoint" />
            <mxPoint x="340" y="269.5" as="targetPoint" />
          </mxGeometry>
        </mxCell>
        <mxCell id="XW34NHOJ4P6kjXkz7-ER-5" value="" style="shape=flexArrow;endArrow=classic;html=1;rounded=0;" edge="1" parent="1">
          <mxGeometry width="50" height="50" relative="1" as="geometry">
            <mxPoint x="270" y="360" as="sourcePoint" />
            <mxPoint x="340" y="320" as="targetPoint" />
          </mxGeometry>
        </mxCell>
        <mxCell id="XW34NHOJ4P6kjXkz7-ER-6" value="" style="shape=flexArrow;endArrow=classic;html=1;rounded=0;" edge="1" parent="1">
          <mxGeometry width="50" height="50" relative="1" as="geometry">
            <mxPoint x="260" y="179.5" as="sourcePoint" />
            <mxPoint x="340" y="200" as="targetPoint" />
          </mxGeometry>
        </mxCell>
        <mxCell id="XW34NHOJ4P6kjXkz7-ER-7" value="" style="rounded=0;whiteSpace=wrap;html=1;" vertex="1" parent="1">
          <mxGeometry x="370" y="180" width="120" height="180" as="geometry" />
        </mxCell>
        <mxCell id="XW34NHOJ4P6kjXkz7-ER-8" value="" style="shape=flexArrow;endArrow=classic;html=1;rounded=0;" edge="1" parent="1">
          <mxGeometry width="50" height="50" relative="1" as="geometry">
            <mxPoint x="530" y="269.5" as="sourcePoint" />
            <mxPoint x="610" y="269.5" as="targetPoint" />
          </mxGeometry>
        </mxCell>
        <mxCell id="XW34NHOJ4P6kjXkz7-ER-9" value="&lt;span style=&quot;white-space: normal;&quot;&gt;Manager&lt;/span&gt;" style="text;html=1;align=center;verticalAlign=middle;resizable=0;points=[];autosize=1;strokeColor=none;fillColor=none;" vertex="1" parent="1">
          <mxGeometry x="395" y="140" width="70" height="30" as="geometry" />
        </mxCell>
        <mxCell id="XW34NHOJ4P6kjXkz7-ER-10" value="解压缩" style="rounded=0;whiteSpace=wrap;html=1;" vertex="1" parent="1">
          <mxGeometry x="380" y="190" width="100" height="60" as="geometry" />
        </mxCell>
        <mxCell id="XW34NHOJ4P6kjXkz7-ER-11" value="路径回吐" style="rounded=0;whiteSpace=wrap;html=1;" vertex="1" parent="1">
          <mxGeometry x="380" y="270" width="100" height="60" as="geometry" />
        </mxCell>
        <mxCell id="XW34NHOJ4P6kjXkz7-ER-12" value="原始逻辑" style="rounded=0;whiteSpace=wrap;html=1;" vertex="1" parent="1">
          <mxGeometry x="630" y="240" width="100" height="60" as="geometry" />
        </mxCell>
      </root>
    </mxGraphModel>
  </diagram>
</mxfile>
